<svg width="500" height="502" viewBox="0 0 500 502" fill="none" xmlns="http://www.w3.org/2000/svg">
<path d="M250 1L466.506 126V376L250 501L33.4937 376V126L250 1Z" fill="#C0D2D2"/>
<path d="M53 351H253L203 401H3L53 351Z" fill="#132978"/>
<path d="M115.5 286H190.5L140 336H65L115.5 286Z" fill="#132978"/>
<path d="M178 221H378L328 271H128L178 221Z" fill="#132978"/>
<path d="M297 91H497L447 141H247L297 91Z" fill="#132978"/>
<path d="M240.5 156H315.5L265 206H190L240.5 156Z" fill="#132978"/>
<line x1="465.5" y1="375" x2="465.5" y2="300" stroke="#127070" stroke-width="3"/>
<line x1="465.705" y1="374.299" x2="400.753" y2="411.799" stroke="#127070" stroke-width="3"/>
<line x1="34.5" y1="126.5" x2="34.5" y2="201.5" stroke="#127070" stroke-width="3"/>
<line x1="34.2947" y1="127.201" x2="99.2466" y2="89.701" stroke="#127070" stroke-width="3"/>
<line x1="249.239" y1="499.682" x2="314.191" y2="462.182" stroke="#127070" stroke-width="3"/>
<line x1="250.204" y1="499.795" x2="185.252" y2="462.295" stroke="#127070" stroke-width="2.99003"/>
<line x1="251.702" y1="2.29904" x2="186.75" y2="39.799" stroke="#127070" stroke-width="3"/>
<line x1="250.737" y1="2.18642" x2="315.689" y2="39.6864" stroke="#127070" stroke-width="2.99003"/>
<line x1="252.5" y1="462.134" x2="425.705" y2="362.134" stroke="#127070" stroke-width="2"/>
<line x1="76.5" y1="137.134" x2="249.705" y2="37.134" stroke="#127070" stroke-width="2"/>
</svg>
